<svg xmlns="http://www.w3.org/2000/svg" width="135.673" height="135.674" viewBox="0 0 135.673 135.674">
  <g id="Group_7263" data-name="Group 7263" transform="translate(0)">
    <path id="Path_15787" data-name="Path 15787" d="M-1637.559,391.26a12.321,12.321,0,0,0-12.317-12.32,12.321,12.321,0,0,0-12.316,12.32,12.32,12.32,0,0,0,12.316,12.315A12.32,12.32,0,0,0-1637.559,391.26Z" transform="translate(1717.715 -267.901)" fill="#80c241"/>
    <path id="Path_15788" data-name="Path 15788" d="M-1662.192,236.155a12.317,12.317,0,0,0,12.316,12.313,12.316,12.316,0,0,0,12.317-12.313,12.318,12.318,0,0,0-12.317-12.321A12.319,12.319,0,0,0-1662.192,236.155Z" transform="translate(1717.715 -223.834)" fill="#f1d825"/>
    <path id="Path_15789" data-name="Path 15789" d="M-1727.43,326.026a12.319,12.319,0,0,0,12.315-12.318,12.314,12.314,0,0,0-12.315-12.313,12.315,12.315,0,0,0-12.319,12.313A12.319,12.319,0,0,0-1727.43,326.026Z" transform="translate(1739.749 -245.869)" fill="#ec2b39"/>
    <path id="Path_15790" data-name="Path 15790" d="M-1572.325,301.394a12.316,12.316,0,0,0-12.32,12.313,12.321,12.321,0,0,0,12.32,12.318,12.317,12.317,0,0,0,12.315-12.318A12.313,12.313,0,0,0-1572.325,301.394Z" transform="translate(1695.683 -245.869)" fill="#19c2f0"/>
    <path id="Path_15791" data-name="Path 15791" d="M-1662.287,310.481c-12.3,9.172-23.632,18.541-32.075,29.435,5.764-12.71,16.324-24.121,28.745-33.894A6.762,6.762,0,0,0-1662.287,310.481Zm6.54-11.831a6.772,6.772,0,0,1,3.331,4.457c12.422-9.768,22.988-21.191,28.748-33.885C-1632.11,280.1-1643.448,289.481-1655.747,298.65Zm-6.54,0c-12.3-9.168-23.636-18.551-32.075-29.428,5.756,12.7,16.323,24.117,28.747,33.889A6.767,6.767,0,0,1-1662.287,298.65Zm9.871,7.372a6.762,6.762,0,0,1-3.33,4.459c12.3,9.172,23.631,18.544,32.078,29.435C-1629.434,327.206-1639.994,315.8-1652.416,306.022Z" transform="translate(1726.854 -236.729)" fill="#a46c64"/>
    <path id="Path_15792" data-name="Path 15792" d="M-1619.445,300.085c22.757-10.473,26.263-29.508,23.249-46.844-2.021,21.193-19.71,40.073-41.626,42.412a6.73,6.73,0,0,1,1.611,4.374,6.717,6.717,0,0,1-1.689,4.456c21.953,2.3,39.681,21.208,41.7,42.42C-1593.182,329.565-1596.688,310.552-1619.445,300.085Z" transform="translate(1710.813 -232.189)" fill="#19c2f0"/>
    <path id="Path_15793" data-name="Path 15793" d="M-1670.684,299.992A6.718,6.718,0,0,1-1669,295.54c-21.955-2.306-39.683-21.208-41.706-42.42-3.012,17.335.491,36.353,23.251,46.818-22.76,10.471-26.263,29.506-23.251,46.84,2.023-21.193,19.713-40.074,41.635-42.413A6.722,6.722,0,0,1-1670.684,299.992Z" transform="translate(1731.761 -232.154)" fill="#ec2b39"/>
    <path id="Path_15794" data-name="Path 15794" d="M-1663.5,276.134c-10.471-22.762-29.507-26.259-46.842-23.252,21.194,2.015,40.074,19.709,42.414,41.631a6.724,6.724,0,0,1,4.375-1.612,6.735,6.735,0,0,1,4.451,1.68c2.306-21.953,21.21-39.681,42.422-41.7C-1634.023,249.875-1653.037,253.372-1663.5,276.134Z" transform="translate(1731.395 -231.825)" fill="#f1d825"/>
    <path id="Path_15795" data-name="Path 15795" d="M-1659.225,325.763a6.737,6.737,0,0,1-4.368,1.6,6.746,6.746,0,0,1-4.458-1.679c-2.3,21.953-21.2,39.685-42.422,41.708,17.337,3.01,36.353-.489,46.82-23.251,10.471,22.762,29.506,26.261,46.842,23.251C-1638,365.371-1656.885,347.678-1659.225,325.763Z" transform="translate(1731.431 -252.77)" fill="#80c241"/>
  </g>
</svg>
