<svg xmlns="http://www.w3.org/2000/svg" width="274.684" height="206.24" viewBox="0 0 274.684 206.24">
  <g id="Group_7293" data-name="Group 7293" transform="translate(-77 -440.674)">
    <rect id="Rectangle_181" data-name="Rectangle 181" width="72.954" height="78.238" transform="translate(77.654 567.721)" fill="#ec2b39"/>
    <g id="Group_7286" data-name="Group 7286" transform="translate(-91.961 109.802)">
      <g id="Group_7285" data-name="Group 7285">
        <path id="Path_15850" data-name="Path 15850" d="M179.868,348.219l-10.907-16.6h6.478l7.135,11.562,7.216-11.562h6.15l-10.906,16.6v12.424h-5.166Z" fill="#fff"/>
        <path id="Path_15851" data-name="Path 15851" d="M212.38,330.876c9.061-.164,15.457,5.9,15.457,15.211,0,9.061-6.4,15.13-15.457,15.293-8.938,0-15.334-6.067-15.334-15.129C197.046,336.944,203.442,330.876,212.38,330.876Zm.041,25.831c6.027,0,10-4.592,10-10.784,0-5.78-3.977-10.373-10-10.373-5.985,0-9.963,4.593-9.963,10.373C202.458,352.115,206.436,356.707,212.421,356.707Z" fill="#fff"/>
        <path id="Path_15852" data-name="Path 15852" d="M256,349.982c0,7.012-5.043,11.4-11.685,11.4s-11.685-4.386-11.685-11.4V331.614H237.8v18.2c0,2.87,1.558,6.642,6.519,6.642s6.519-3.772,6.519-6.642v-18.2H256Z" fill="#fff"/>
        <path id="Path_15853" data-name="Path 15853" d="M262.358,331.614h10.086c5.577,0,10.825,1.8,10.825,8.324,0,4.182-2.42,7.256-6.725,7.872l7.708,12.833h-6.231l-6.725-12.3h-3.772v12.3h-5.166Zm9.184,12.3c2.911,0,6.314-.247,6.314-4.019,0-3.444-3.2-3.854-5.863-3.854h-4.469v7.873Z" fill="#fff"/>
      </g>
    </g>
    <g id="Group_7287" data-name="Group 7287" transform="translate(-91.961 109.802)">
      <path id="Path_15854" data-name="Path 15854" d="M169.615,367.594h5.166v11.562h13.571V367.594h5.166v29.028h-5.166V383.83H174.781v12.792h-5.166Z" fill="#19c2f0"/>
      <path id="Path_15855" data-name="Path 15855" d="M213.771,366.856c9.062-.164,15.458,5.9,15.458,15.211,0,9.061-6.4,15.129-15.458,15.293-8.938,0-15.334-6.068-15.334-15.129C198.437,372.924,204.833,366.856,213.771,366.856Zm.041,25.83c6.027,0,10-4.592,10-10.783,0-5.781-3.977-10.373-10-10.373-5.985,0-9.962,4.592-9.962,10.373C203.85,388.094,207.827,392.686,213.812,392.686Z" fill="#19c2f0"/>
      <path id="Path_15856" data-name="Path 15856" d="M234.148,367.594h5.166v24.354h12.341v4.674H234.148Z" fill="#19c2f0"/>
      <path id="Path_15857" data-name="Path 15857" d="M255.3,367.594h5.166v29.028H255.3Z" fill="#19c2f0"/>
      <path id="Path_15858" data-name="Path 15858" d="M281.052,373.826a6.124,6.124,0,0,0-5.084-2.3c-2.378,0-4.756,1.066-4.756,3.731,0,5.822,13.776,2.5,13.776,12.833,0,6.232-4.92,9.266-10.619,9.266-3.608,0-7.134-1.107-9.512-3.936l3.9-3.772a6.847,6.847,0,0,0,5.74,3.034c2.378,0,5.084-1.312,5.084-3.977,0-6.355-13.776-2.706-13.776-13.079,0-5.986,5.33-8.774,10.7-8.774a11.914,11.914,0,0,1,8.323,2.993Z" fill="#19c2f0"/>
      <path id="Path_15859" data-name="Path 15859" d="M296.3,372.268h-8.9v-4.674h22.96v4.674h-8.9v24.354H296.3Z" fill="#19c2f0"/>
      <path id="Path_15860" data-name="Path 15860" d="M313.77,367.594h5.166v29.028H313.77Z" fill="#19c2f0"/>
      <path id="Path_15861" data-name="Path 15861" d="M345.216,374.4a7.911,7.911,0,0,0-6.109-2.87c-5.985,0-9.962,4.592-9.962,10.373,0,6.191,3.977,10.783,9.962,10.783a8.157,8.157,0,0,0,6.519-3.526l4.265,3.034a12.844,12.844,0,0,1-10.825,5.166c-8.938,0-15.334-6.068-15.334-15.129,0-9.307,6.4-15.375,15.334-15.375a12.615,12.615,0,0,1,10.168,4.592Z" fill="#19c2f0"/>
      <path id="Path_15862" data-name="Path 15862" d="M365.511,367.594h5.166v24.354h12.341v4.674H365.511Z" fill="#19c2f0"/>
      <path id="Path_15863" data-name="Path 15863" d="M386.667,367.594h5.166v29.028h-5.166Z" fill="#19c2f0"/>
      <path id="Path_15864" data-name="Path 15864" d="M398.188,367.594h18.737v4.674H403.354v7.626h12.792v4.674H403.354v12.054h-5.166Z" fill="#19c2f0"/>
      <path id="Path_15865" data-name="Path 15865" d="M421.721,367.594H440.95v4.674H426.887V379.4h13.325v4.674H426.887v7.872h14.8v4.674H421.721Z" fill="#19c2f0"/>
    </g>
    <g id="Group_7288" data-name="Group 7288" transform="translate(-91.961 109.802)">
      <path id="Path_15866" data-name="Path 15866" d="M168.961,405.592h16.556c6.418,0,13.016,2.939,13.016,10.677,0,4.8-3,7.978-7.378,9.3v.12a10.1,10.1,0,0,1,9.177,10.257c0,9.238-8.038,12.117-16.075,12.117h-15.3Zm7.558,17.275h6.9c5.039,0,7.558-2.159,7.558-5.338,0-3.659-2.519-5.459-8.218-5.459h-6.238Zm0,18.715h6.958c3.9,0,9.3-.66,9.3-6.239,0-4.438-2.879-6-9-6h-7.258Z" fill="#80c241"/>
      <path id="Path_15867" data-name="Path 15867" d="M221.57,405.592h6.538L246.4,448.06h-8.637l-3.959-9.718H215.392l-3.839,9.718H203.1Zm9.6,26.272-6.538-17.275-6.658,17.275Z" fill="#80c241"/>
      <path id="Path_15868" data-name="Path 15868" d="M251.145,405.592H258.7v35.63h18.054v6.838H251.145Z" fill="#80c241"/>
      <path id="Path_15869" data-name="Path 15869" d="M296.015,405.592h6.538l18.294,42.468H312.21l-3.959-9.718H289.836L286,448.06H277.54Zm9.6,26.272-6.538-17.275-6.658,17.275Z" fill="#80c241"/>
      <path id="Path_15870" data-name="Path 15870" d="M325.59,405.592h10.017l20.574,31.551h.12V405.592h7.558V448.06h-9.6l-20.994-32.571h-.12V448.06H325.59Z" fill="#80c241"/>
      <path id="Path_15871" data-name="Path 15871" d="M402.492,415.549c-3.119-3.3-6-4.2-8.937-4.2-8.758,0-14.576,6.717-14.576,15.175,0,9.057,5.818,15.775,14.576,15.775,3.419,0,6.717-1.559,9.537-5.158l6.238,4.439c-3.839,5.278-9.6,7.557-15.835,7.557-13.077,0-22.433-8.877-22.433-22.133,0-13.616,9.356-22.494,22.433-22.494a18.457,18.457,0,0,1,14.875,6.718Z" fill="#80c241"/>
      <path id="Path_15872" data-name="Path 15872" d="M414.433,405.592h28.131v6.838H421.991v10.437h19.494V429.7H421.991v11.517h21.654v6.838H414.433Z" fill="#80c241"/>
    </g>
    <rect id="Rectangle_182" data-name="Rectangle 182" width="141.726" height="1.516" transform="translate(196.744 453.075)" fill="#fff"/>
    <g id="Group_7289" data-name="Group 7289" transform="translate(-91.961 109.802)">
      <path id="Path_15873" data-name="Path 15873" d="M244.931,465.1h24.818v6.033H251.6v9.208h17.2v6.032H251.6v10.161h19.1v6.032h-25.77Z" fill="#f1d825"/>
      <path id="Path_15874" data-name="Path 15874" d="M276.787,462.564h6.35V502.57h-6.35Z" fill="#f1d825"/>
      <path id="Path_15875" data-name="Path 15875" d="M295.52,492.093a6.58,6.58,0,0,0,6.826,6.032,8.348,8.348,0,0,0,6.826-3.439l4.552,3.439a13.231,13.231,0,0,1-10.743,5.08c-7.673,0-13.811-5.344-13.811-13.335s6.138-13.335,13.811-13.335c7.091,0,11.907,4.974,11.907,13.811v1.747Zm13.018-4.763c-.054-3.7-2.488-6.033-6.456-6.033-3.758,0-6.086,2.382-6.562,6.033Z" fill="#f1d825"/>
      <path id="Path_15876" data-name="Path 15876" d="M320.55,477.17h6.032v3.969h.106a8.071,8.071,0,0,1,7.779-4.6c3.916,0,6.615,1.534,7.937,4.71a8.844,8.844,0,0,1,8.362-4.71c6.773,0,9.154,4.816,9.154,10.9V502.57h-6.35V488.177c0-3.175-.952-5.927-4.71-5.927-3.968,0-5.45,3.281-5.45,6.562V502.57h-6.35V487.436c0-3.122-1.27-5.186-4.339-5.186-4.181,0-5.821,3.069-5.821,6.456V502.57h-6.35Z" fill="#f1d825"/>
      <path id="Path_15877" data-name="Path 15877" d="M371.933,492.093a6.58,6.58,0,0,0,6.826,6.032,8.348,8.348,0,0,0,6.826-3.439l4.552,3.439a13.23,13.23,0,0,1-10.743,5.08c-7.673,0-13.811-5.344-13.811-13.335s6.138-13.335,13.811-13.335c7.091,0,11.907,4.974,11.907,13.811v1.747Zm13.018-4.763c-.054-3.7-2.488-6.033-6.456-6.033-3.758,0-6.086,2.382-6.562,6.033Z" fill="#f1d825"/>
      <path id="Path_15878" data-name="Path 15878" d="M397.228,477.17h6.032v4.075h.106c1.164-2.54,3.545-4.71,7.779-4.71,6.826,0,9.26,4.816,9.26,10V502.57h-6.35V489.711c0-2.8-.212-7.461-4.657-7.461-4.18,0-5.821,3.069-5.821,6.456V502.57h-6.349Z" fill="#f1d825"/>
      <path id="Path_15879" data-name="Path 15879" d="M424.639,482.567v-5.4h5.238v-7.356h6.351v7.356h6.984v5.4h-6.984V493.68c0,2.54.74,4.128,3.545,4.128a6.613,6.613,0,0,0,3.439-.794v5.344a13.371,13.371,0,0,1-5.026.847c-6.721,0-8.309-3.016-8.309-9V482.567Z" fill="#f1d825"/>
    </g>
    <g id="Group_7290" data-name="Group 7290" transform="translate(-91.961 109.802)">
      <path id="Path_15880" data-name="Path 15880" d="M259.9,531.11a5.667,5.667,0,0,1-5.975,6c-3.114,0-5.218-1.431-5.835-4.572l3.31-.786a2.391,2.391,0,0,0,2.357,2.16c2.019,0,2.608-1.459,2.608-3.843V516.747H259.9Z" fill="#fff"/>
      <path id="Path_15881" data-name="Path 15881" d="M273.619,516.243c6.2-.113,10.575,4.039,10.575,10.407,0,6.2-4.376,10.35-10.575,10.463-6.116,0-10.491-4.152-10.491-10.351C263.128,520.394,267.5,516.243,273.619,516.243Zm.028,17.672c4.123,0,6.844-3.141,6.844-7.377a6.743,6.743,0,0,0-6.844-7.1c-4.1,0-6.817,3.142-6.817,7.1C266.83,530.774,269.551,533.915,273.647,533.915Z" fill="#fff"/>
      <path id="Path_15882" data-name="Path 15882" d="M303.459,529.314c0,4.8-3.45,7.8-7.994,7.8s-7.995-3-7.995-7.8V516.747h3.535V529.2a4.461,4.461,0,1,0,8.92,0V516.747h3.534Z" fill="#fff"/>
      <path id="Path_15883" data-name="Path 15883" d="M307.8,516.747h6.9c3.814,0,7.4,1.235,7.4,5.7a5.09,5.09,0,0,1-4.6,5.386l5.273,8.78h-4.264l-4.6-8.415h-2.581v8.415H307.8Zm6.283,8.416c1.992,0,4.321-.168,4.321-2.749,0-2.356-2.189-2.637-4.012-2.637h-3.058v5.386Z" fill="#fff"/>
      <path id="Path_15884" data-name="Path 15884" d="M325.47,516.747h4.685l9.621,14.756h.056V516.747h3.535v19.861h-4.488l-9.818-15.232H329v15.232H325.47Z" fill="#fff"/>
      <path id="Path_15885" data-name="Path 15885" d="M354.217,516.747h3.057l8.556,19.861h-4.039l-1.852-4.544h-8.611l-1.8,4.544h-3.955Zm4.488,12.287-3.057-8.079-3.114,8.079Z" fill="#fff"/>
      <path id="Path_15886" data-name="Path 15886" d="M368.041,516.747h3.534V533.41h8.444v3.2H368.041Z" fill="#fff"/>
      <path id="Path_15887" data-name="Path 15887" d="M397.321,516.747h3.057l8.556,19.861h-4.039l-1.852-4.544h-8.612l-1.8,4.544h-3.955Zm4.488,12.287-3.057-8.079-3.114,8.079Z" fill="#fff"/>
      <path id="Path_15888" data-name="Path 15888" d="M411.145,516.747h6.676c3.843,0,7.322,1.347,7.322,5.751,0,4.993-3.731,5.891-7.939,5.891h-2.525v8.219h-3.534Zm5.666,8.612c2.02,0,4.629-.112,4.629-2.8,0-2.44-2.329-2.777-4.236-2.777h-2.525v5.582Z" fill="#fff"/>
      <path id="Path_15889" data-name="Path 15889" d="M428.28,516.747h6.676c3.843,0,7.322,1.347,7.322,5.751,0,4.993-3.731,5.891-7.939,5.891h-2.525v8.219H428.28Zm5.666,8.612c2.02,0,4.629-.112,4.629-2.8,0-2.44-2.329-2.777-4.236-2.777h-2.525v5.582Z" fill="#fff"/>
    </g>
    <g id="Group_7291" data-name="Group 7291" transform="translate(-91.961 109.802)">
      <path id="Path_15890" data-name="Path 15890" d="M193.2,482.988l6.861,7.49h-6.951l-3.364-3.633a11.331,11.331,0,0,1-9.372,4.44c-5.606,0-10.763-3.274-10.763-9.328,0-4.26,3.05-7.444,6.862-8.924-2.019-2.242-3.633-4.171-3.633-7.31,0-5.2,4.305-7.8,9.1-7.8,4.753,0,8.969,2.332,8.969,7.535,0,3.9-3.185,6.592-6.324,8.207l5.113,5.515,3.543-5.381h6.323Zm-13.319-6.771c-2.108,1.255-4.35,2.69-4.35,5.426a4.882,4.882,0,0,0,5.022,4.8c2.467,0,4.216-1.569,5.83-3.139Zm-1.66-10.27c0,1.659,1.615,3.319,3,4.619,1.839-.986,4.305-2.511,4.305-4.843,0-1.7-1.57-2.96-3.5-2.96C179.974,462.763,178.225,464.063,178.225,465.947Z" fill="#fff"/>
    </g>
    <g id="Group_7292" data-name="Group 7292" transform="translate(-91.961 109.802)">
      <path id="Path_15891" data-name="Path 15891" d="M227.338,520.939H193.53V507.573l32.011-49.983h15.275v51.218h11.569v12.131H240.816v16.174H227.338Zm0-44.254h-.225l-19.88,32.123h20.1Z" fill="#fff"/>
    </g>
  </g>
</svg>
